<?xml version="1.0" encoding="UTF-8"?>
<svg width="3840px" height="412px" viewBox="0 0 3840 412" version="1.1" xmlns="http://www.w3.org/2000/svg" xmlns:xlink="http://www.w3.org/1999/xlink">
    <!-- Generator: Sketch 53 (72520) - https://sketchapp.com -->
    <title>bg-header</title>
    <desc>Created with Sketch.</desc>
    <defs>
        <linearGradient x1="108.231833%" y1="96.8986318%" x2="316.055285%" y2="-54.6849029%" id="linearGradient-1">
            <stop stop-color="#E8D036" offset="0%"></stop>
            <stop stop-color="#717687" offset="26%"></stop>
            <stop stop-color="#717687" offset="100%"></stop>
        </linearGradient>
        <linearGradient x1="100.565098%" y1="77.7927097%" x2="230.439521%" y2="14.5019277%" id="linearGradient-2">
            <stop stop-color="#97B9BB" offset="0%"></stop>
            <stop stop-color="#737989" offset="33%"></stop>
            <stop stop-color="#737989" offset="100%"></stop>
        </linearGradient>
        <linearGradient x1="101.760953%" y1="123.991221%" x2="385.216522%" y2="-184.359832%" id="linearGradient-3">
            <stop stop-color="#FDB824" offset="0%"></stop>
            <stop stop-color="#717687" offset="32%"></stop>
            <stop stop-color="#717687" offset="100%"></stop>
        </linearGradient>
        <linearGradient x1="-58.8512669%" y1="-111.100137%" x2="-798.346012%" y2="975.775665%" id="linearGradient-4">
            <stop stop-color="#E8D036" offset="0%"></stop>
            <stop stop-color="#717687" offset="22%"></stop>
            <stop stop-color="#717687" offset="100%"></stop>
        </linearGradient>
        <linearGradient x1="84.2013579%" y1="24.8193796%" x2="-134.3028%" y2="587.259593%" id="linearGradient-5">
            <stop stop-color="#F16360" offset="0%"></stop>
            <stop stop-color="#717687" offset="11%"></stop>
            <stop stop-color="#717687" offset="100%"></stop>
        </linearGradient>
        <linearGradient x1="28.9396418%" y1="-44.3816331%" x2="-407.71072%" y2="770.117897%" id="linearGradient-6">
            <stop stop-color="#97B9BB" offset="0%"></stop>
            <stop stop-color="#717687" offset="18%"></stop>
            <stop stop-color="#717687" offset="100%"></stop>
        </linearGradient>
        <linearGradient x1="5.51716517%" y1="50%" x2="0.83667652%" y2="50%" id="linearGradient-7">
            <stop stop-color="#F8B142" offset="0%"></stop>
            <stop stop-color="#F8B142" stop-opacity="0" offset="100%"></stop>
        </linearGradient>
        <path d="M113.54289,90.0086957 C113.54289,92.3681277 113.462929,94.7434663 113.303003,97.1347826 C113.143077,99.5260989 112.775253,101.869554 112.19952,104.165217 C111.623787,106.460881 110.808178,108.676801 109.752668,110.813043 C108.697157,112.949286 107.305824,114.910136 105.578625,116.695652 C103.339664,119.055084 100.572989,120.856516 97.2785177,122.1 C93.9840462,123.343484 90.3857696,123.965217 86.4835801,123.965217 L60,123.965217 L60,56.1478261 L86.4835801,56.1478261 C90.3857696,56.1478261 93.9840462,56.769559 97.2785177,58.0130435 C100.572989,59.256528 103.339664,61.0579592 105.578625,63.4173913 C107.305824,65.2029075 108.697157,67.1478156 109.752668,69.2521739 C110.808178,71.3565323 111.623787,73.5565103 112.19952,75.8521739 C112.775253,78.1478376 113.143077,80.4912924 113.303003,82.8826087 C113.462929,85.273925 113.54289,87.6492636 113.54289,90.0086957 Z M100.972785,90.0086957 C100.972785,88.4782532 100.9408,86.8521825 100.87683,85.1304348 C100.81286,83.408687 100.620952,81.702907 100.3011,80.0130435 C99.9812486,78.32318 99.5014784,76.7130511 98.8617752,75.1826087 C98.222072,73.6521663 97.2945162,72.2811655 96.0790802,71.0695652 C94.9276144,69.9217334 93.5362808,68.997105 91.9050376,68.2956522 C90.2737945,67.5941994 88.46666,67.2434783 86.4835801,67.2434783 L72.3781951,67.2434783 L72.3781951,112.869565 L86.4835801,112.869565 C88.46666,112.869565 90.2737945,112.518844 91.9050376,111.817391 C93.5362808,111.115939 94.9276144,110.19131 96.0790802,109.043478 C97.2945162,107.831878 98.222072,106.460877 98.8617752,104.930435 C99.5014784,103.399992 99.9812486,101.789864 100.3011,100.1 C100.620952,98.4101365 100.81286,96.6884146 100.87683,94.9347826 C100.9408,93.1811507 100.972785,91.5391381 100.972785,90.0086957 Z M120.96341,67.3391304 L120.96341,55 L133.82138,55 L133.82138,67.3391304 L120.96341,67.3391304 Z M121.34723,123.965217 L121.34723,74.226087 L133.533515,74.226087 L133.533515,123.965217 L121.34723,123.965217 Z M182.366614,108.565217 C182.366614,110.988418 181.966806,113.092745 181.167177,114.878261 C180.367548,116.663777 179.328046,118.194197 178.048639,119.469565 C176.001589,121.510155 173.506784,122.976807 170.564149,123.869565 C167.621515,124.762323 164.423046,125.208696 160.968649,125.208696 C157.770133,125.208696 154.795558,124.746381 152.044834,123.821739 C149.29411,122.897097 146.895259,121.446387 144.848209,119.469565 C143.376892,118.06666 142.129489,116.376821 141.105964,114.4 C140.082439,112.423179 139.570684,110.255084 139.570684,107.895652 L150.797419,107.895652 C150.797419,108.979716 151.053297,110.063763 151.565059,111.147826 C152.076822,112.231889 152.716515,113.09275 153.484159,113.730435 C154.443714,114.495656 155.515201,115.053621 156.698652,115.404348 C157.882103,115.755074 159.337406,115.930435 161.064604,115.930435 C162.088129,115.930435 163.191601,115.850725 164.375052,115.691304 C165.558503,115.531883 166.661974,115.228988 167.685499,114.782609 C168.709024,114.33623 169.556618,113.698555 170.228307,112.869565 C170.899995,112.040576 171.235834,110.956528 171.235834,109.617391 C171.235834,108.150717 170.788049,106.971019 169.892464,106.078261 C168.99688,105.185503 167.781462,104.611595 166.246174,104.356522 C164.007213,104.03768 161.704316,103.766668 159.337414,103.543478 C156.970512,103.320289 154.667615,102.953626 152.428654,102.443478 C150.701456,102.060868 149.150199,101.455077 147.774837,100.626087 C146.399475,99.7970973 145.200049,98.7927595 144.176524,97.6130435 C143.152999,96.4333274 142.369374,95.1260941 141.825627,93.6913043 C141.281879,92.2565146 141.010009,90.742037 141.010009,89.1478261 C141.010009,86.5970887 141.489779,84.4130526 142.449334,82.5956522 C143.408889,80.7782518 144.624307,79.2318904 146.095624,77.9565217 C147.950763,76.3623109 150.157706,75.1347869 152.716519,74.273913 C155.275332,73.4130392 158.121969,72.9826087 161.256514,72.9826087 C164.263119,72.9826087 167.157733,73.4608648 169.940442,74.4173913 C172.723151,75.3739178 175.04204,76.8405698 176.897179,78.8173913 C178.240556,80.2840653 179.312043,81.8941941 180.111672,83.6478261 C180.911301,85.401458 181.311109,87.2028893 181.311109,89.0521739 L169.892464,89.0521739 C169.892464,88.0956474 169.700556,87.2347864 169.316734,86.4695652 C168.932912,85.704344 168.453142,85.0029017 167.877409,84.3652174 C167.173736,83.6637646 166.230188,83.1057992 165.046737,82.6913043 C163.863286,82.2768095 162.631876,82.0695652 161.352469,82.0695652 C160.456885,82.0695652 159.593298,82.101449 158.761684,82.1652174 C157.93007,82.2289858 157.066484,82.452172 156.170899,82.8347826 C155.083404,83.2811617 154.17184,83.9507202 153.436182,84.8434783 C152.700523,85.7362363 152.332699,86.8202835 152.332699,88.0956522 C152.332699,89.8811683 152.9564,91.1086923 154.203822,91.7782609 C155.451243,92.4478294 156.746622,92.8782599 158.089999,93.0695652 C159.241465,93.1971021 160.201005,93.3086952 160.968649,93.4043478 L163.271569,93.6913043 C164.039213,93.786957 164.83883,93.8985501 165.670444,94.026087 C166.502058,94.1536238 167.525568,94.3130425 168.741004,94.5043478 C172.707164,95.1420322 175.969601,96.6565098 178.528414,99.0478261 C181.087227,101.439142 182.366614,104.611574 182.366614,108.565217 Z M216.670527,85.3217391 C215.19921,85.002897 213.823868,84.8434783 212.544462,84.8434783 C208.322421,84.8434783 205.123953,86.1825953 202.948962,88.8608696 C200.773971,91.5391438 199.686492,94.8869364 199.686492,98.9043478 L199.686492,123.965217 L187.596162,123.965217 L187.596162,74.226087 L197.767392,74.226087 L198.822897,81.6869565 C199.974363,78.817377 201.877451,76.7449339 204.532219,75.4695652 C207.186988,74.1941965 209.985647,73.5565217 212.928282,73.5565217 C214.143718,73.5565217 215.391121,73.652173 216.670527,73.8434783 L216.670527,85.3217391 Z M253.165412,123.965217 L252.301817,117.46087 C251.086381,119.88407 249.199285,121.781153 246.640472,123.152174 C244.081659,124.523195 241.203038,125.208696 238.004522,125.208696 C235.317769,125.208696 232.918918,124.778265 230.807897,123.917391 C228.696876,123.056517 226.889742,121.844935 225.386439,120.282609 C223.883137,118.720282 222.731688,116.855083 221.932059,114.686957 C221.13243,112.51883 220.732622,110.095666 220.732622,107.417391 L220.732622,74.226087 L232.726997,74.226087 L232.726997,104.73913 C232.726997,107.672478 233.366691,109.98405 234.646097,111.673913 C235.925503,113.363777 238.164431,114.208696 241.362947,114.208696 C242.770294,114.208696 243.96972,113.969568 244.96126,113.491304 C245.9528,113.013041 246.800394,112.423192 247.504067,111.721739 C248.975384,110.382602 249.950917,108.692764 250.430695,106.652174 C250.910472,104.611584 251.150357,102.571025 251.150357,100.530435 L251.150357,74.226087 L263.144732,74.226087 L263.144732,123.965217 L253.165412,123.965217 Z M313.273224,99 C313.273224,103.910169 312.537576,108.230416 311.066259,111.96087 C309.594941,115.691323 307.356014,118.768104 304.349409,121.191304 C302.814121,122.466673 301.038971,123.455069 299.023906,124.156522 C297.008841,124.857975 294.721936,125.208696 292.163124,125.208696 C289.156518,125.208696 286.517782,124.746381 284.246836,123.821739 C281.97589,122.897097 280.264709,121.73334 279.113243,120.330435 L279.113243,143 L267.118868,143 L267.118868,74.226087 L277.482008,74.226087 L278.249648,79.6782609 C279.720966,77.3825972 281.736001,75.7087009 284.294813,74.6565217 C286.853626,73.6043426 289.508355,73.0782609 292.259079,73.0782609 C294.753921,73.0782609 297.008841,73.4608657 299.023906,74.226087 C301.038971,74.9913082 302.814121,76.0115878 304.349409,77.2869565 C307.356014,79.710157 309.594941,82.7550541 311.066259,86.4217391 C312.537576,90.0884241 313.273224,94.2811358 313.273224,99 Z M301.086939,99.1913043 C301.086939,97.0231776 300.879038,94.8710252 300.463231,92.7347826 C300.047424,90.59854 299.19983,88.7014576 297.920424,87.0434783 C297.024839,85.9594149 295.921368,85.0347864 294.609976,84.2695652 C293.298584,83.504344 291.715343,83.1217391 289.860203,83.1217391 C287.493302,83.1217391 285.574221,83.6159371 284.102903,84.6043478 C282.631586,85.5927586 281.480138,86.8681081 280.648523,88.4304348 C279.816909,89.9927614 279.257177,91.7304252 278.969311,93.6434783 C278.681445,95.5565313 278.537513,97.4057882 278.537513,99.1913043 C278.537513,100.976821 278.681445,102.810136 278.969311,104.691304 C279.257177,106.572473 279.816909,108.294195 280.648523,109.856522 C281.480138,111.418848 282.631586,112.694198 284.102903,113.682609 C285.574221,114.671019 287.493302,115.165217 289.860203,115.165217 C291.715343,115.165217 293.298584,114.782613 294.609976,114.017391 C295.921368,113.25217 297.024839,112.327542 297.920424,111.243478 C299.19983,109.585499 300.047424,107.704358 300.463231,105.6 C300.879038,103.495642 301.086939,101.359431 301.086939,99.1913043 Z M350,123.295652 C346.545603,124.18841 343.123242,124.634783 339.732815,124.634783 C334.67916,124.634783 330.904967,123.279724 328.410125,120.569565 C325.915282,117.859407 324.66788,114.113067 324.66788,109.330435 L324.66788,84.0782609 L315.552155,84.0782609 L315.552155,74.226087 L324.66788,74.226087 L324.66788,61.6 L336.662255,58.6347826 L336.662255,74.226087 L349.23236,74.226087 L349.23236,84.0782609 L336.662255,84.0782609 L336.662255,108.278261 C336.662255,110.191314 337.11004,111.578257 338.005625,112.43913 C338.901209,113.300004 340.308535,113.730435 342.227645,113.730435 C343.507051,113.730435 344.706477,113.698551 345.825957,113.634783 C346.945438,113.571014 348.336772,113.443479 350,113.252174 L350,123.295652 Z" id="path-8"></path>
        <filter x="-2.1%" y="-3.4%" width="104.1%" height="113.6%" filterUnits="objectBoundingBox" id="filter-9">
            <feOffset dx="0" dy="3" in="SourceAlpha" result="shadowOffsetOuter1"></feOffset>
            <feGaussianBlur stdDeviation="1.5" in="shadowOffsetOuter1" result="shadowBlurOuter1"></feGaussianBlur>
            <feColorMatrix values="0 0 0 0 0   0 0 0 0 0   0 0 0 0 0  0 0 0 0.1 0" type="matrix" in="shadowBlurOuter1"></feColorMatrix>
        </filter>
    </defs>
    <g id="bg-header" stroke="none" stroke-width="1" fill="none" fill-rule="evenodd">
        <g id="angles" transform="translate(0.000000, -1.000000)" fill-rule="nonzero">
            <g id="top" transform="translate(165.000000, 0.000000)">
                <polygon id="Path" fill="url(#linearGradient-1)" points="172.353874 0 0 103 244 0"></polygon>
                <polygon id="Path" fill="url(#linearGradient-2)" points="0 103 355 1.42108547e-14 271.213609 1.42108547e-14"></polygon>
                <polygon id="Path" fill="url(#linearGradient-3)" points="124.774724 1.42108547e-14 0 103 160 1.42108547e-14"></polygon>
            </g>
            <g id="bottom" transform="translate(0.000000, 103.000000)">
                <polygon id="Path" fill="url(#linearGradient-4)" points="-1.42108547e-13 136.948193 -1.42108547e-13 168 165 0"></polygon>
                <polygon id="Path" fill="url(#linearGradient-5)" points="0 226.227839 0 310 165 0"></polygon>
                <polygon id="Path" fill="url(#linearGradient-6)" points="-1.13686838e-13 172.851044 -1.13686838e-13 219 165 0"></polygon>
            </g>
        </g>
        <polygon id="corner" fill="#F16360" fill-rule="nonzero" points="0 0 0 235 284 8.25511534e-14"></polygon>
        <polygon id="underline" fill="url(#linearGradient-7)" points="157.256077 137 3840 137 3840 143 151 143"></polygon>
        <g id="headline" fill-rule="nonzero">
            <use fill="black" fill-opacity="1" filter="url(#filter-9)" xlink:href="#path-8"></use>
            <use fill="#FFFFFF" xlink:href="#path-8"></use>
        </g>
    </g>
</svg>